<svg width="247" height="32" viewBox="0 0 247 32" fill="none" xmlns="http://www.w3.org/2000/svg">
<path d="M47.5067 21.98C49.0534 21.98 49.8267 21.4067 49.8267 20.26C49.8267 19.7933 49.7067 19.4267 49.4667 19.16C49.2401 18.8933 48.8134 18.66 48.1867 18.46L46.5467 17.92C44.5867 17.28 43.6067 15.9933 43.6067 14.06C43.6067 12.94 43.9534 12.02 44.6467 11.3C45.3534 10.5667 46.4534 10.2 47.9467 10.2C48.5734 10.2 49.1934 10.2733 49.8067 10.42C50.4201 10.5533 51.0734 10.7733 51.7667 11.08L51.0267 13.14C50.3867 12.8867 49.8401 12.7067 49.3867 12.6C48.9467 12.48 48.4934 12.42 48.0267 12.42C47.4134 12.42 46.9267 12.5333 46.5667 12.76C46.2201 12.9733 46.0467 13.3667 46.0467 13.94C46.0467 14.3667 46.1667 14.72 46.4067 15C46.6601 15.2667 47.0734 15.4933 47.6467 15.68L49.2867 16.22C50.2734 16.5533 51.0134 17.04 51.5067 17.68C52.0134 18.3067 52.2667 19.14 52.2667 20.18C52.2667 21.38 51.8867 22.3533 51.1267 23.1C50.3667 23.8333 49.1734 24.2 47.5467 24.2C46.9067 24.2 46.2401 24.1267 45.5467 23.98C44.8667 23.82 44.1201 23.5533 43.3067 23.18L44.0467 21.12C44.7934 21.44 45.4267 21.6667 45.9467 21.8C46.4801 21.92 47.0001 21.98 47.5067 21.98ZM62.1505 13.86L58.5505 24H56.4505L52.8505 13.86H55.1705L56.9105 18.92L57.5705 21.02L58.2105 18.92L59.8705 13.86H62.1505ZM71.5757 23.42C70.8823 23.7 70.229 23.9 69.6157 24.02C69.0023 24.14 68.4223 24.2 67.8757 24.2C66.369 24.2 65.229 23.7733 64.4557 22.92C63.6823 22.0667 63.2957 20.9333 63.2957 19.52V18.32C63.2957 17.3733 63.469 16.5533 63.8157 15.86C64.1623 15.1667 64.6557 14.6267 65.2957 14.24C65.9357 13.8533 66.689 13.66 67.5557 13.66C68.2623 13.66 68.9223 13.8067 69.5357 14.1C70.1623 14.38 70.669 14.8267 71.0557 15.44C71.4557 16.04 71.6557 16.8133 71.6557 17.76C71.6557 18.04 71.6357 18.34 71.5957 18.66C71.5557 18.9667 71.489 19.2933 71.3957 19.64H65.5157C65.5423 20.4667 65.749 21.0867 66.1357 21.5C66.5223 21.9133 67.1423 22.12 67.9957 22.12C68.449 22.12 68.9157 22.0667 69.3957 21.96C69.889 21.8533 70.3957 21.6933 70.9157 21.48L71.5757 23.42ZM67.5557 15.6C66.9423 15.6 66.4623 15.8 66.1157 16.2C65.7823 16.5867 65.589 17.1467 65.5357 17.88H69.3757C69.389 17.8133 69.3957 17.7533 69.3957 17.7C69.3957 17.6333 69.3957 17.5733 69.3957 17.52C69.3957 16.88 69.2157 16.4 68.8557 16.08C68.4957 15.76 68.0623 15.6 67.5557 15.6ZM80.3453 24V22.66C79.732 23.1933 79.1587 23.5867 78.6253 23.84C78.092 24.08 77.552 24.2 77.0053 24.2C76.0987 24.2 75.3987 23.8933 74.9053 23.28C74.412 22.6533 74.1653 21.78 74.1653 20.66V13.86H76.4653V20.38C76.4653 21.5 76.8787 22.06 77.7053 22.06C78.0387 22.06 78.3987 21.98 78.7853 21.82C79.1853 21.66 79.6653 21.3533 80.2253 20.9V13.86H82.5253V24H80.3453ZM87.4521 18.34V19.52C87.4521 20.3733 87.6054 21.0133 87.9121 21.44C88.2187 21.8667 88.7121 22.08 89.3921 22.08C89.7254 22.08 90.0987 22.04 90.5121 21.96C90.9387 21.8667 91.3987 21.7267 91.8921 21.54L92.5521 23.48C91.9521 23.72 91.3854 23.9 90.8521 24.02C90.3187 24.14 89.7921 24.2 89.2721 24.2C87.9387 24.2 86.9187 23.7733 86.2121 22.92C85.5054 22.0667 85.1521 20.9333 85.1521 19.52V18.34C85.1521 16.9133 85.5054 15.78 86.2121 14.94C86.9187 14.0867 87.9387 13.66 89.2721 13.66C89.7787 13.66 90.2921 13.72 90.8121 13.84C91.3321 13.96 91.8787 14.1333 92.4521 14.36L91.7921 16.34C90.8321 15.9667 90.0321 15.78 89.3921 15.78C88.7121 15.78 88.2187 15.9933 87.9121 16.42C87.6054 16.8333 87.4521 17.4733 87.4521 18.34ZM92.2921 9.2L90.3721 12.42H88.1321L86.2121 9.2H88.0721L89.2921 10.8L90.5121 9.2H92.2921ZM97.0169 11.94H94.5969V9.56H97.0169V11.94ZM96.9569 24H94.6569V13.86H96.9569V24ZM100.066 21.14V9.2H102.366V21.14C102.366 21.34 102.412 21.5333 102.506 21.72C102.612 21.8933 102.812 21.98 103.106 21.98H103.426V24.1H102.866C102.106 24.1 101.526 23.9533 101.126 23.66C100.726 23.3667 100.446 22.9933 100.286 22.54C100.139 22.0867 100.066 21.62 100.066 21.14ZM108.013 11.94H105.593V9.56H108.013V11.94ZM107.953 24H105.653V13.86H107.953V24ZM113.962 22.2C114.455 22.2 114.862 22.12 115.182 21.96C115.502 21.7867 115.662 21.5333 115.662 21.2C115.662 20.9067 115.555 20.68 115.342 20.52C115.142 20.3467 114.775 20.1933 114.242 20.06L113.102 19.76C112.222 19.5333 111.568 19.1533 111.142 18.62C110.728 18.0867 110.522 17.4533 110.522 16.72C110.522 15.8533 110.822 15.1267 111.422 14.54C112.022 13.9533 112.948 13.66 114.202 13.66C114.708 13.66 115.242 13.72 115.802 13.84C116.362 13.96 116.948 14.1533 117.562 14.42L116.902 16.38C116.342 16.1133 115.835 15.9267 115.382 15.82C114.928 15.7133 114.528 15.66 114.182 15.66C113.235 15.66 112.762 15.98 112.762 16.62C112.762 16.8733 112.842 17.0733 113.002 17.22C113.175 17.3667 113.488 17.5 113.942 17.62L115.082 17.92C116.055 18.1733 116.762 18.56 117.202 19.08C117.655 19.6 117.882 20.2533 117.882 21.04C117.882 21.9733 117.562 22.7333 116.922 23.32C116.295 23.9067 115.302 24.2 113.942 24.2C112.782 24.2 111.562 23.9333 110.282 23.4L110.902 21.5C111.528 21.7533 112.095 21.9333 112.602 22.04C113.108 22.1467 113.562 22.2 113.962 22.2ZM117.162 9.2L115.242 12.42H113.002L111.082 9.2H112.942L114.162 10.8L115.382 9.2H117.162ZM126.343 23.66C125.996 23.82 125.596 23.9467 125.143 24.04C124.69 24.1467 124.23 24.2 123.763 24.2C122.99 24.2 122.37 24.04 121.903 23.72C121.436 23.4 121.096 22.9533 120.883 22.38C120.683 21.8067 120.583 21.1533 120.583 20.42V15.86H118.943V13.86H120.583V11.22H122.883V13.86H126.043V15.86H122.883V20.42C122.883 21.0333 122.996 21.46 123.223 21.7C123.463 21.9267 123.803 22.04 124.243 22.04C124.456 22.04 124.683 22.02 124.923 21.98C125.176 21.9267 125.456 21.84 125.763 21.72L126.343 23.66ZM135.892 23.42C135.199 23.7 134.545 23.9 133.932 24.02C133.319 24.14 132.739 24.2 132.192 24.2C130.685 24.2 129.545 23.7733 128.772 22.92C127.999 22.0667 127.612 20.9333 127.612 19.52V18.32C127.612 17.3733 127.785 16.5533 128.132 15.86C128.479 15.1667 128.972 14.6267 129.612 14.24C130.252 13.8533 131.005 13.66 131.872 13.66C132.579 13.66 133.239 13.8067 133.852 14.1C134.479 14.38 134.985 14.8267 135.372 15.44C135.772 16.04 135.972 16.8133 135.972 17.76C135.972 18.04 135.952 18.34 135.912 18.66C135.872 18.9667 135.805 19.2933 135.712 19.64H129.832C129.859 20.4667 130.065 21.0867 130.452 21.5C130.839 21.9133 131.459 22.12 132.312 22.12C132.765 22.12 133.232 22.0667 133.712 21.96C134.205 21.8533 134.712 21.6933 135.232 21.48L135.892 23.42ZM131.872 15.6C131.259 15.6 130.779 15.8 130.432 16.2C130.099 16.5867 129.905 17.1467 129.852 17.88H133.692C133.705 17.8133 133.712 17.7533 133.712 17.7C133.712 17.6333 133.712 17.5733 133.712 17.52C133.712 16.88 133.532 16.4 133.172 16.08C132.812 15.76 132.379 15.6 131.872 15.6ZM145.886 21.98C147.432 21.98 148.206 21.4067 148.206 20.26C148.206 19.7933 148.086 19.4267 147.846 19.16C147.619 18.8933 147.192 18.66 146.566 18.46L144.926 17.92C142.966 17.28 141.986 15.9933 141.986 14.06C141.986 12.94 142.332 12.02 143.026 11.3C143.732 10.5667 144.832 10.2 146.326 10.2C146.952 10.2 147.572 10.2733 148.186 10.42C148.799 10.5533 149.452 10.7733 150.146 11.08L149.406 13.14C148.766 12.8867 148.219 12.7067 147.766 12.6C147.326 12.48 146.872 12.42 146.406 12.42C145.792 12.42 145.306 12.5333 144.946 12.76C144.599 12.9733 144.426 13.3667 144.426 13.94C144.426 14.3667 144.546 14.72 144.786 15C145.039 15.2667 145.452 15.4933 146.026 15.68L147.666 16.22C148.652 16.5533 149.392 17.04 149.886 17.68C150.392 18.3067 150.646 19.14 150.646 20.18C150.646 21.38 150.266 22.3533 149.506 23.1C148.746 23.8333 147.552 24.2 145.926 24.2C145.286 24.2 144.619 24.1267 143.926 23.98C143.246 23.82 142.499 23.5533 141.686 23.18L142.426 21.12C143.172 21.44 143.806 21.6667 144.326 21.8C144.859 21.92 145.379 21.98 145.886 21.98ZM155.337 11.94H152.917V9.56H155.337V11.94ZM150.897 28.46V26.3C151.564 26.3 152.077 26.14 152.437 25.82C152.797 25.5 152.977 24.92 152.977 24.08V13.86H155.277V24.08C155.277 24.84 155.151 25.5533 154.897 26.22C154.657 26.8867 154.217 27.4267 153.577 27.84C152.951 28.2533 152.057 28.46 150.897 28.46ZM166.146 23.42C165.453 23.7 164.799 23.9 164.186 24.02C163.573 24.14 162.993 24.2 162.446 24.2C160.939 24.2 159.799 23.7733 159.026 22.92C158.253 22.0667 157.866 20.9333 157.866 19.52V18.32C157.866 17.3733 158.039 16.5533 158.386 15.86C158.733 15.1667 159.226 14.6267 159.866 14.24C160.506 13.8533 161.259 13.66 162.126 13.66C162.833 13.66 163.493 13.8067 164.106 14.1C164.733 14.38 165.239 14.8267 165.626 15.44C166.026 16.04 166.226 16.8133 166.226 17.76C166.226 18.04 166.206 18.34 166.166 18.66C166.126 18.9667 166.059 19.2933 165.966 19.64H160.086C160.113 20.4667 160.319 21.0867 160.706 21.5C161.093 21.9133 161.713 22.12 162.566 22.12C163.019 22.12 163.486 22.0667 163.966 21.96C164.459 21.8533 164.966 21.6933 165.486 21.48L166.146 23.42ZM162.126 15.6C161.513 15.6 161.033 15.8 160.686 16.2C160.353 16.5867 160.159 17.1467 160.106 17.88H163.946C163.959 17.8133 163.966 17.7533 163.966 17.7C163.966 17.6333 163.966 17.5733 163.966 17.52C163.966 16.88 163.786 16.4 163.426 16.08C163.066 15.76 162.633 15.6 162.126 15.6ZM176.838 13.86L173.238 24H171.138L167.538 13.86H169.858L171.598 18.92L172.258 21.02L172.898 18.92L174.558 13.86H176.838ZM186.263 23.42C185.57 23.7 184.916 23.9 184.303 24.02C183.69 24.14 183.11 24.2 182.563 24.2C181.056 24.2 179.916 23.7733 179.143 22.92C178.37 22.0667 177.983 20.9333 177.983 19.52V18.32C177.983 17.3733 178.156 16.5533 178.503 15.86C178.85 15.1667 179.343 14.6267 179.983 14.24C180.623 13.8533 181.376 13.66 182.243 13.66C182.95 13.66 183.61 13.8067 184.223 14.1C184.85 14.38 185.356 14.8267 185.743 15.44C186.143 16.04 186.343 16.8133 186.343 17.76C186.343 18.04 186.323 18.34 186.283 18.66C186.243 18.9667 186.176 19.2933 186.083 19.64H180.203C180.23 20.4667 180.436 21.0867 180.823 21.5C181.21 21.9133 181.83 22.12 182.683 22.12C183.136 22.12 183.603 22.0667 184.083 21.96C184.576 21.8533 185.083 21.6933 185.603 21.48L186.263 23.42ZM182.243 15.6C181.63 15.6 181.15 15.8 180.803 16.2C180.47 16.5867 180.276 17.1467 180.223 17.88H184.063C184.076 17.8133 184.083 17.7533 184.083 17.7C184.083 17.6333 184.083 17.5733 184.083 17.52C184.083 16.88 183.903 16.4 183.543 16.08C183.183 15.76 182.75 15.6 182.243 15.6ZM194.713 15.96C194.086 15.96 193.486 16.06 192.913 16.26C192.353 16.4467 191.813 16.7533 191.293 17.18V24H188.993V13.86H191.173V15.42C191.853 14.78 192.46 14.3267 192.993 14.06C193.526 13.7933 194.1 13.66 194.713 13.66V15.96Z" fill="#E30613"/>
<g clip-path="url(#clip0_2037_2)">
<path d="M0.000609413 16.1382C0.0258094 13.0315 0.801735 10.1384 2.39461 7.48888C3.68685 5.33734 5.37701 3.589 7.49615 2.28824C9.43904 1.0828 11.6174 0.330198 13.8764 0.0839052C16.7416 -0.229285 19.4404 0.339497 22.0037 1.65046C25.3167 3.3448 27.7072 5.94872 29.2397 9.39022C29.9941 11.0617 30.4576 12.8551 30.6093 14.6899C30.8765 18.0251 30.2412 21.1696 28.5944 24.0712C27.0326 26.8245 24.8121 28.8812 22.0682 30.3434C20.3849 31.235 18.5464 31.778 16.6578 31.9411C14.1689 32.1703 11.7889 31.7563 9.49457 30.755C7.64768 29.9555 5.96853 28.7993 4.54892 27.3495C2.23345 24.9861 0.79822 22.1452 0.225066 18.8507C0.0694455 17.9555 -0.00568765 17.0475 0.000609413 16.1382ZM4.25179 24.43C4.27231 24.019 4.24652 23.6548 4.24359 23.29C4.23128 21.79 4.23656 20.2901 4.23363 18.7901C4.23063 18.7306 4.24023 18.6711 4.26177 18.6157C4.28332 18.5603 4.3163 18.5103 4.35846 18.4691C5.30746 17.5212 6.25373 16.571 7.19727 15.6186C7.29865 15.516 7.36839 15.5142 7.46978 15.6186C8.45043 16.597 9.43304 17.5732 10.4176 18.5471C10.472 18.6013 10.5143 18.6668 10.5416 18.7394C10.5688 18.8119 10.5803 18.8896 10.5752 18.9671C10.5713 21.0971 10.5713 23.2268 10.5752 25.3563C10.5752 25.9005 10.5131 25.8231 11.0441 25.8411C11.2633 25.8483 11.3184 25.7607 11.3142 25.5519C11.3025 25.0497 11.3107 24.5469 11.3107 24.0448C11.3107 22.9424 11.3107 21.84 11.3107 20.7377C11.3107 20.6663 11.2849 20.5733 11.3693 20.5361C11.432 20.5079 11.4725 20.5775 11.5106 20.6207C12.1757 21.3688 12.838 22.1206 13.5031 22.8664C13.5536 22.9199 13.5929 22.9833 13.6186 23.0528C13.6444 23.1224 13.6562 23.1965 13.6532 23.2708C13.6473 23.9688 13.6473 24.6661 13.6532 25.3629C13.6584 25.8843 13.5576 25.8309 14.1507 25.8363C14.2914 25.8363 14.35 25.7763 14.3476 25.6353C14.3435 25.3803 14.3617 25.1241 14.3412 24.8703C14.3201 24.6057 14.4127 24.4228 14.6037 24.2464C15.9141 23.038 17.2169 21.817 18.522 20.6015C18.7658 20.3747 19.0126 20.1509 19.2581 19.9259C19.2892 19.8971 19.3167 19.8497 19.3677 19.8707C19.4187 19.8917 19.4052 19.9457 19.4076 19.9907C19.4076 20.0435 19.4076 20.0957 19.4076 20.1485C19.4076 21.8736 19.4076 23.5986 19.4076 25.3233C19.4076 25.9179 19.3384 25.8261 19.911 25.8351C20.2351 25.8405 20.2345 25.8351 20.2345 25.4997C20.2345 23.3548 20.2345 21.2098 20.2292 19.0655C20.2246 18.9766 20.2405 18.8879 20.2757 18.8065C20.3108 18.7251 20.3641 18.6533 20.4314 18.5969C20.9037 18.1709 21.3655 17.733 21.8315 17.2992C22.6605 16.5284 23.4904 15.7578 24.321 14.9874C24.3761 14.9358 24.4382 14.8368 24.5185 14.8752C24.5988 14.9136 24.5601 15.024 24.5601 15.102C24.5601 18.2663 24.5601 21.431 24.5601 24.5961C24.5601 24.9413 24.5601 25.2863 24.5601 25.6311C24.5601 25.7031 24.5413 25.8027 24.6351 25.8207C24.7998 25.8519 24.9803 25.8807 25.1315 25.8081C25.2534 25.7481 25.1901 25.5897 25.1901 25.4763C25.1924 22.2664 25.1924 19.0565 25.1901 15.8466C25.1901 15.7764 25.1514 15.6768 25.2305 15.6426C25.3096 15.6084 25.3542 15.7026 25.4011 15.7554C25.8078 16.197 26.2081 16.6452 26.6195 17.0832C26.6785 17.143 26.7247 17.2149 26.755 17.2942C26.7853 17.3735 26.799 17.4583 26.7953 17.5434C26.7902 19.5153 26.789 21.4876 26.7918 23.4604V23.83C26.8984 23.7257 26.9875 23.604 27.0555 23.47C28.1441 21.5966 28.8035 19.4948 28.9841 17.3228C29.1646 15.1508 28.8617 12.9652 28.0981 10.9304C27.3991 9.04645 26.3277 7.33062 24.9508 5.89038C23.574 4.45015 21.9215 3.31656 20.0968 2.56063C17.4904 1.48586 14.827 1.30907 12.1066 2.03024C9.57193 2.70762 7.40649 4.03958 5.60146 5.98052C4.50897 7.15629 3.61357 8.50863 2.95136 9.983C1.85135 12.4087 1.45752 14.9568 1.71304 17.6088C1.89395 19.4572 2.428 21.2511 3.28482 22.8886C3.56597 23.4283 3.88935 23.9437 4.25179 24.43ZM15.3451 26.9259V26.9295H10.4891C9.53696 26.9295 8.58464 26.9295 7.63212 26.9295C7.4563 26.9295 7.33206 26.9949 7.31741 27.1935C7.30393 27.3771 7.427 27.5145 7.62098 27.5343C7.67213 27.537 7.72338 27.537 7.77452 27.5343C12.8294 27.5343 17.8836 27.5343 22.9373 27.5343C23.0247 27.5379 23.1122 27.5284 23.1969 27.5061C23.3335 27.4635 23.4349 27.3669 23.4191 27.2109C23.4136 27.1386 23.3831 27.0707 23.333 27.0195C23.2829 26.9684 23.2165 26.9373 23.146 26.9319C23.0657 26.9238 22.9851 26.9214 22.9045 26.9247L15.3451 26.9259ZM15.3345 28.328H10.1732C10.0927 28.3254 10.0121 28.3276 9.93176 28.3346C9.869 28.3397 9.80968 28.3661 9.76319 28.4095C9.71671 28.453 9.6857 28.5111 9.67507 28.5746C9.64284 28.7096 9.70086 28.8086 9.80518 28.8824C9.90232 28.9514 10.0205 28.9821 10.1381 28.9688C10.2986 28.9556 10.4598 28.9466 10.6204 28.9466C13.9073 28.9466 17.1945 28.9466 20.4818 28.9466C20.5697 28.9466 20.6576 28.9466 20.7449 28.9412C20.8938 28.931 20.9981 28.8572 21.0151 28.7012C21.0265 28.6299 21.0134 28.5567 20.978 28.4941C20.9427 28.4315 20.8872 28.3834 20.8211 28.358C20.7377 28.3292 20.6491 28.3191 20.5615 28.3286L15.3345 28.328ZM8.58151 20.3981C8.58151 19.7135 8.04469 19.1513 7.39301 19.1579C7.07822 19.1604 6.77665 19.2878 6.55171 19.5133C6.32678 19.7387 6.19602 20.0447 6.18692 20.3669C6.17462 21.0269 6.72843 21.5974 7.38656 21.6028C7.54237 21.6043 7.69693 21.5743 7.84138 21.5146C7.98584 21.4548 8.11735 21.3664 8.22836 21.2545C8.33938 21.1425 8.42772 21.0093 8.48832 20.8623C8.54892 20.7153 8.58059 20.5576 8.58151 20.3981ZM8.40101 24.7983C8.40101 24.5211 8.39515 24.244 8.40101 23.9668C8.4057 23.8078 8.36057 23.7346 8.1912 23.737C7.6497 23.7442 7.1076 23.743 6.5661 23.737C6.419 23.737 6.35512 23.782 6.35688 23.9428C6.36391 24.5047 6.36391 25.0669 6.35688 25.6293C6.35688 25.7889 6.41841 25.8375 6.5661 25.8357C7.1076 25.8303 7.6497 25.8291 8.1912 25.8357C8.35823 25.8357 8.40746 25.7673 8.40277 25.6071C8.39515 25.3383 8.40101 25.0683 8.40101 24.7983ZM22.7351 22.4752C22.7351 21.4404 22.7351 20.4055 22.7351 19.3703C22.7351 19.1063 22.6226 18.9659 22.4257 18.9665C22.2288 18.9671 22.1274 19.0865 22.1274 19.3703C22.1274 21.4318 22.1274 23.4936 22.1274 25.5555C22.1274 25.8363 22.1321 25.8255 22.465 25.8393C22.6771 25.8483 22.7422 25.7733 22.7404 25.5573C22.7299 24.5301 22.7351 23.503 22.7351 22.4752ZM15.4306 29.7668C14.6688 29.7668 13.9069 29.7668 13.1451 29.7668C13.0073 29.7668 12.8972 29.813 12.8415 29.9468C12.817 29.9979 12.8072 30.0552 12.8134 30.1118C12.8195 30.1685 12.8412 30.2221 12.8761 30.2666C12.9154 30.3164 12.9657 30.3562 13.0228 30.3825C13.0799 30.4089 13.1423 30.4212 13.2048 30.4184L17.6869 30.3902C17.7014 30.3911 17.7159 30.3911 17.7303 30.3902C17.9172 30.368 18.0315 30.2648 18.0286 30.0686C18.0257 29.8724 17.9114 29.7686 17.7156 29.7686L15.4306 29.7668ZM12.7975 24.6837C12.7975 24.3616 12.8069 24.0388 12.7975 23.7172C12.7876 23.4436 12.5584 23.2918 12.3433 23.4046C12.2033 23.479 12.1675 23.6128 12.1675 23.7646C12.1675 24.3118 12.1675 24.8589 12.1675 25.4061C12.1675 25.8531 12.1675 25.8459 12.5965 25.8375C12.7647 25.8375 12.8093 25.7631 12.8057 25.6053C12.7923 25.2987 12.7975 24.9909 12.7975 24.6837ZM17.0569 24.9681V24.6531C17.0569 24.5481 17.0569 24.4431 17.0569 24.3382C17.0499 24.0802 16.9362 23.9296 16.7475 23.9242C16.5465 23.9176 16.4293 24.0646 16.4304 24.3442C16.4304 24.7041 16.4709 25.0641 16.4457 25.4241C16.4152 25.8675 16.4205 25.8297 16.86 25.8357C17.0159 25.8357 17.0663 25.7715 17.061 25.6203C17.0511 25.4031 17.0569 25.1853 17.0569 24.9681Z" fill="#E30613"/>
<path d="M22.7544 9.78628C22.7133 11.249 22.309 12.6284 21.5887 13.9112C20.5831 15.7021 19.3213 17.295 17.9552 18.8094C17.1605 19.6922 16.3311 20.5381 15.4669 21.3473C15.328 21.4769 15.2459 21.4775 15.1053 21.3473C13.5581 19.9018 12.131 18.327 10.8389 16.6393C9.94806 15.4807 9.13932 14.2693 8.55327 12.9194C8.0903 11.8502 7.8424 10.7277 7.87756 9.55469C7.98305 5.9896 10.4814 3.02929 13.8148 2.42211C15.3924 2.13472 16.9209 2.24212 18.3918 2.9171C19.8833 3.60047 21.029 4.68584 21.8226 6.14799C22.4379 7.26816 22.7256 8.48132 22.7544 9.78628ZM20.9687 9.79768C20.9769 6.62858 18.4282 3.99346 15.3426 3.98086C12.1616 3.96826 9.68376 6.54578 9.66324 9.66928C9.64097 13.0682 12.2167 15.4975 15.2952 15.5215C18.4041 15.5461 20.9599 12.9584 20.9675 9.79768H20.9687Z" fill="#E30613"/>
<path d="M15.4137 5.80721C16.1959 5.80733 16.9604 6.04488 17.6107 6.48982C18.2609 6.93477 18.7677 7.56713 19.0669 8.30694C19.3662 9.04675 19.4444 9.86078 19.2917 10.6461C19.1391 11.4314 18.7624 12.1528 18.2093 12.7189C17.6562 13.2851 16.9516 13.6706 16.1845 13.8268C15.4173 13.983 14.6222 13.9028 13.8996 13.5963C13.1771 13.2899 12.5595 12.7709 12.1249 12.1051C11.6904 11.4394 11.4585 10.6566 11.4585 9.85588C11.4596 8.78235 11.8767 7.7531 12.6182 6.99405C13.3597 6.235 14.3651 5.80816 15.4137 5.80721ZM15.4137 3.88727C14.2607 3.88727 13.1335 4.23732 12.1748 4.89316C11.216 5.549 10.4688 6.48117 10.0275 7.57179C9.58627 8.66241 9.47081 9.8625 9.69576 11.0203C9.92072 12.1781 10.476 13.2416 11.2913 14.0763C12.1066 14.9111 13.1455 15.4795 14.2764 15.7098C15.4073 15.9401 16.5795 15.8219 17.6448 15.3702C18.7101 14.9184 19.6206 14.1534 20.2612 13.1719C20.9018 12.1903 21.2437 11.0364 21.2437 9.85588C21.2437 9.07207 21.0929 8.29594 20.8 7.57179C20.507 6.84765 20.0775 6.18967 19.5362 5.63544C18.9948 5.0812 18.3521 4.64155 17.6448 4.3416C16.9375 4.04165 16.1793 3.88727 15.4137 3.88727Z" fill="#E30613"/>
</g>
<defs>
<clipPath id="clip0_2037_2">
<rect width="30.6667" height="32" fill="white"/>
</clipPath>
</defs>
</svg>
