<svg width="31" height="32" viewBox="0 0 31 32" fill="none" xmlns="http://www.w3.org/2000/svg">
<g clip-path="url(#clip0_2029_2)">
<path d="M0.000609413 16.1382C0.0258094 13.0315 0.801735 10.1384 2.39461 7.48884C3.68685 5.33731 5.37701 3.58897 7.49615 2.28821C9.43904 1.08277 11.6174 0.330167 13.8764 0.0838746C16.7416 -0.229316 19.4404 0.339467 22.0037 1.65043C25.3167 3.34477 27.7072 5.94869 29.2397 9.39019C29.9941 11.0616 30.4576 12.8551 30.6093 14.6898C30.8765 18.0251 30.2412 21.1696 28.5944 24.0711C27.0326 26.8244 24.8121 28.8812 22.0682 30.3433C20.3849 31.235 18.5464 31.7779 16.6578 31.9411C14.1689 32.1703 11.7889 31.7563 9.49457 30.7549C7.64768 29.9555 5.96853 28.7992 4.54892 27.3494C2.23345 24.9861 0.79822 22.1452 0.225066 18.8507C0.0694455 17.9554 -0.00568765 17.0475 0.000609413 16.1382ZM4.25179 24.4299C4.27231 24.0189 4.24652 23.6547 4.24359 23.29C4.23128 21.79 4.23656 20.29 4.23363 18.7901C4.23063 18.7305 4.24023 18.671 4.26177 18.6156C4.28332 18.5602 4.3163 18.5102 4.35846 18.4691C5.30746 17.5211 6.25373 16.571 7.19727 15.6186C7.29865 15.516 7.36839 15.5142 7.46978 15.6186C8.45043 16.597 9.43304 17.5731 10.4176 18.5471C10.472 18.6012 10.5143 18.6668 10.5416 18.7393C10.5688 18.8119 10.5803 18.8896 10.5752 18.9671C10.5713 21.097 10.5713 23.2268 10.5752 25.3563C10.5752 25.9005 10.5131 25.8231 11.0441 25.8411C11.2633 25.8483 11.3184 25.7607 11.3142 25.5519C11.3025 25.0497 11.3107 24.5469 11.3107 24.0447C11.3107 22.9424 11.3107 21.84 11.3107 20.7376C11.3107 20.6662 11.2849 20.5732 11.3693 20.536C11.432 20.5078 11.4725 20.5774 11.5106 20.6206C12.1757 21.3688 12.838 22.1206 13.5031 22.8664C13.5536 22.9199 13.5929 22.9833 13.6186 23.0528C13.6444 23.1223 13.6562 23.1965 13.6532 23.2708C13.6473 23.9687 13.6473 24.6661 13.6532 25.3629C13.6584 25.8843 13.5576 25.8309 14.1507 25.8363C14.2914 25.8363 14.35 25.7763 14.3476 25.6353C14.3435 25.3803 14.3617 25.1241 14.3412 24.8703C14.3201 24.6057 14.4127 24.4227 14.6037 24.2463C15.9141 23.038 17.2169 21.817 18.522 20.6014C18.7658 20.3746 19.0126 20.1509 19.2581 19.9259C19.2892 19.8971 19.3167 19.8497 19.3677 19.8707C19.4187 19.8917 19.4052 19.9457 19.4076 19.9907C19.4076 20.0435 19.4076 20.0957 19.4076 20.1485C19.4076 21.8736 19.4076 23.5985 19.4076 25.3233C19.4076 25.9179 19.3384 25.8261 19.911 25.8351C20.2351 25.8405 20.2345 25.8351 20.2345 25.4997C20.2345 23.3548 20.2345 21.2098 20.2292 19.0655C20.2246 18.9766 20.2405 18.8879 20.2757 18.8065C20.3108 18.7251 20.3641 18.6533 20.4314 18.5969C20.9037 18.1709 21.3655 17.7329 21.8315 17.2991C22.6605 16.5284 23.4904 15.7578 24.321 14.9874C24.3761 14.9358 24.4382 14.8368 24.5185 14.8752C24.5988 14.9136 24.5601 15.024 24.5601 15.102C24.5601 18.2663 24.5601 21.431 24.5601 24.5961C24.5601 24.9413 24.5601 25.2863 24.5601 25.6311C24.5601 25.7031 24.5413 25.8027 24.6351 25.8207C24.7998 25.8519 24.9803 25.8807 25.1315 25.8081C25.2534 25.7481 25.1901 25.5897 25.1901 25.4763C25.1924 22.2664 25.1924 19.0565 25.1901 15.8466C25.1901 15.7764 25.1514 15.6768 25.2305 15.6426C25.3096 15.6084 25.3542 15.7026 25.4011 15.7554C25.8078 16.197 26.2081 16.6452 26.6195 17.0831C26.6785 17.143 26.7247 17.2149 26.755 17.2942C26.7853 17.3734 26.799 17.4583 26.7953 17.5433C26.7902 19.5153 26.789 21.4876 26.7918 23.4603V23.8299C26.8984 23.7256 26.9875 23.604 27.0555 23.47C28.1441 21.5965 28.8035 19.4948 28.9841 17.3228C29.1646 15.1508 28.8617 12.9652 28.0981 10.9303C27.3991 9.04642 26.3277 7.33059 24.9508 5.89035C23.574 4.45012 21.9215 3.31652 20.0968 2.5606C17.4904 1.48583 14.827 1.30904 12.1066 2.03021C9.57193 2.70759 7.40649 4.03955 5.60146 5.98049C4.50897 7.15626 3.61357 8.5086 2.95136 9.98297C1.85135 12.4087 1.45752 14.9568 1.71304 17.6087C1.89395 19.4571 2.428 21.2511 3.28482 22.8886C3.56597 23.4282 3.88935 23.9437 4.25179 24.4299ZM15.3451 26.9258V26.9294H10.4891C9.53696 26.9294 8.58464 26.9294 7.63212 26.9294C7.4563 26.9294 7.33206 26.9948 7.31741 27.1934C7.30393 27.377 7.427 27.5144 7.62098 27.5342C7.67213 27.5369 7.72338 27.5369 7.77452 27.5342C12.8294 27.5342 17.8836 27.5342 22.9373 27.5342C23.0247 27.5379 23.1122 27.5284 23.1969 27.506C23.3335 27.4634 23.4349 27.3668 23.4191 27.2108C23.4136 27.1386 23.3831 27.0707 23.333 27.0195C23.2829 26.9683 23.2165 26.9372 23.146 26.9318C23.0657 26.9237 22.9851 26.9213 22.9045 26.9246L15.3451 26.9258ZM15.3345 28.328H10.1732C10.0927 28.3254 10.0121 28.3276 9.93176 28.3346C9.869 28.3397 9.80968 28.366 9.76319 28.4095C9.71671 28.453 9.6857 28.5111 9.67507 28.5746C9.64284 28.7096 9.70086 28.8086 9.80518 28.8824C9.90232 28.9514 10.0205 28.982 10.1381 28.9688C10.2986 28.9556 10.4598 28.9466 10.6204 28.9466C13.9073 28.9466 17.1945 28.9466 20.4818 28.9466C20.5697 28.9466 20.6576 28.9466 20.7449 28.9412C20.8938 28.931 20.9981 28.8572 21.0151 28.7012C21.0265 28.6298 21.0134 28.5567 20.978 28.4941C20.9427 28.4315 20.8872 28.3834 20.8211 28.358C20.7377 28.3291 20.6491 28.3191 20.5615 28.3286L15.3345 28.328ZM8.58151 20.398C8.58151 19.7135 8.04469 19.1513 7.39301 19.1579C7.07822 19.1604 6.77665 19.2878 6.55171 19.5132C6.32678 19.7387 6.19602 20.0447 6.18692 20.3668C6.17462 21.0268 6.72843 21.5974 7.38656 21.6028C7.54237 21.6043 7.69693 21.5743 7.84138 21.5145C7.98584 21.4547 8.11735 21.3664 8.22836 21.2544C8.33938 21.1425 8.42772 21.0092 8.48832 20.8623C8.54892 20.7153 8.58059 20.5576 8.58151 20.398ZM8.40101 24.7983C8.40101 24.5211 8.39515 24.2439 8.40101 23.9667C8.4057 23.8077 8.36057 23.7345 8.1912 23.7369C7.6497 23.7441 7.1076 23.7429 6.5661 23.7369C6.419 23.7369 6.35512 23.7819 6.35688 23.9427C6.36391 24.5047 6.36391 25.0669 6.35688 25.6293C6.35688 25.7889 6.41841 25.8375 6.5661 25.8357C7.1076 25.8303 7.6497 25.8291 8.1912 25.8357C8.35823 25.8357 8.40746 25.7673 8.40277 25.6071C8.39515 25.3383 8.40101 25.0683 8.40101 24.7983ZM22.7351 22.4752C22.7351 21.4404 22.7351 20.4054 22.7351 19.3703C22.7351 19.1063 22.6226 18.9659 22.4257 18.9665C22.2288 18.9671 22.1274 19.0865 22.1274 19.3703C22.1274 21.4318 22.1274 23.4936 22.1274 25.5555C22.1274 25.8363 22.1321 25.8255 22.465 25.8393C22.6771 25.8483 22.7422 25.7733 22.7404 25.5573C22.7299 24.5301 22.7351 23.5029 22.7351 22.4752ZM15.4306 29.7668C14.6688 29.7668 13.9069 29.7668 13.1451 29.7668C13.0073 29.7668 12.8972 29.813 12.8415 29.9468C12.817 29.9979 12.8072 30.0552 12.8134 30.1118C12.8195 30.1684 12.8412 30.2221 12.8761 30.2665C12.9154 30.3164 12.9657 30.3561 13.0228 30.3825C13.0799 30.4089 13.1423 30.4211 13.2048 30.4183L17.6869 30.3901C17.7014 30.391 17.7159 30.391 17.7303 30.3901C17.9172 30.3679 18.0315 30.2647 18.0286 30.0685C18.0257 29.8724 17.9114 29.7686 17.7156 29.7686L15.4306 29.7668ZM12.7975 24.6837C12.7975 24.3615 12.8069 24.0387 12.7975 23.7171C12.7876 23.4436 12.5584 23.2918 12.3433 23.4046C12.2033 23.4789 12.1675 23.6127 12.1675 23.7645C12.1675 24.3117 12.1675 24.8589 12.1675 25.4061C12.1675 25.8531 12.1675 25.8459 12.5965 25.8375C12.7647 25.8375 12.8093 25.7631 12.8057 25.6053C12.7923 25.2987 12.7975 24.9909 12.7975 24.6837ZM17.0569 24.9681V24.6531C17.0569 24.5481 17.0569 24.4431 17.0569 24.3381C17.0499 24.0801 16.9362 23.9295 16.7475 23.9241C16.5465 23.9175 16.4293 24.0645 16.4304 24.3441C16.4304 24.7041 16.4709 25.0641 16.4457 25.4241C16.4152 25.8675 16.4205 25.8297 16.86 25.8357C17.0159 25.8357 17.0663 25.7715 17.061 25.6203C17.0511 25.4031 17.0569 25.1853 17.0569 24.9681Z" fill="#E30613"/>
<path d="M22.7544 9.78625C22.7133 11.249 22.309 12.6284 21.5887 13.9111C20.5831 15.7021 19.3213 17.295 17.9552 18.8094C17.1605 19.6921 16.3311 20.5381 15.4669 21.3473C15.328 21.4769 15.2459 21.4775 15.1053 21.3473C13.5581 19.9018 12.131 18.327 10.8389 16.6392C9.94806 15.4807 9.13932 14.2693 8.55327 12.9194C8.0903 11.8502 7.8424 10.7276 7.87756 9.55466C7.98305 5.98957 10.4814 3.02926 13.8148 2.42208C15.3924 2.13469 16.9209 2.24209 18.3918 2.91707C19.8833 3.60044 21.029 4.68581 21.8226 6.14796C22.4379 7.26813 22.7256 8.48129 22.7544 9.78625ZM20.9687 9.79765C20.9769 6.62855 18.4282 3.99343 15.3426 3.98083C12.1616 3.96823 9.68376 6.54575 9.66324 9.66925C9.64097 13.0681 12.2167 15.4975 15.2952 15.5215C18.4041 15.5461 20.9599 12.9584 20.9675 9.79765H20.9687Z" fill="#E30613"/>
<path d="M15.4137 5.80718C16.1959 5.8073 16.9604 6.04485 17.6107 6.48979C18.2609 6.93474 18.7677 7.5671 19.0669 8.30691C19.3662 9.04672 19.4444 9.86075 19.2917 10.6461C19.1391 11.4314 18.7624 12.1528 18.2093 12.7189C17.6562 13.2851 16.9516 13.6706 16.1845 13.8268C15.4173 13.9829 14.6222 13.9027 13.8996 13.5963C13.1771 13.2898 12.5595 12.7709 12.1249 12.1051C11.6904 11.4393 11.4585 10.6566 11.4585 9.85585C11.4596 8.78231 11.8767 7.75307 12.6182 6.99402C13.3597 6.23497 14.3651 5.80813 15.4137 5.80718ZM15.4137 3.88724C14.2607 3.88724 13.1335 4.23729 12.1748 4.89313C11.216 5.54897 10.4688 6.48114 10.0275 7.57176C9.58627 8.66238 9.47081 9.86247 9.69576 11.0203C9.92072 12.1781 10.476 13.2416 11.2913 14.0763C12.1066 14.911 13.1455 15.4795 14.2764 15.7098C15.4073 15.9401 16.5795 15.8219 17.6448 15.3701C18.7101 14.9184 19.6206 14.1534 20.2612 13.1718C20.9018 12.1903 21.2437 11.0363 21.2437 9.85585C21.2437 9.07204 21.0929 8.29591 20.8 7.57176C20.507 6.84762 20.0775 6.18964 19.5362 5.6354C18.9948 5.08117 18.3521 4.64152 17.6448 4.34157C16.9375 4.04162 16.1793 3.88724 15.4137 3.88724Z" fill="#E30613"/>
</g>
<defs>
<clipPath id="clip0_2029_2">
<rect width="30.6667" height="32" fill="white"/>
</clipPath>
</defs>
</svg>
