<svg width="247" height="32" viewBox="0 0 247 32" fill="none" xmlns="http://www.w3.org/2000/svg">
<path d="M44.2267 10.4H46.6867V19.12C46.6867 20 46.8801 20.6933 47.2667 21.2C47.6534 21.6933 48.2734 21.94 49.1267 21.94C49.9801 21.94 50.6001 21.6933 50.9867 21.2C51.3734 20.6933 51.5667 20 51.5667 19.12V10.4H54.0267V19.12C54.0267 20.6533 53.6201 21.8867 52.8067 22.82C51.9934 23.74 50.7667 24.2 49.1267 24.2C47.4734 24.2 46.2401 23.74 45.4267 22.82C44.6267 21.8867 44.2267 20.6533 44.2267 19.12V10.4ZM62.1364 15.8C61.8031 15.8 61.4231 15.88 60.9964 16.04C60.5698 16.2 60.0631 16.5133 59.4764 16.98V24H57.1764V13.86H59.3564V15.22C59.9831 14.6733 60.5764 14.28 61.1364 14.04C61.6964 13.7867 62.2631 13.66 62.8364 13.66C63.8098 13.66 64.5498 13.9733 65.0564 14.6C65.5631 15.2133 65.8164 16.08 65.8164 17.2V24H63.5164V17.48C63.5164 16.36 63.0564 15.8 62.1364 15.8ZM71.2161 11.94H68.7961V9.56H71.2161V11.94ZM71.1561 24H68.8561V13.86H71.1561V24ZM82.3849 13.86L78.7849 24H76.6849L73.0849 13.86H75.4049L77.1449 18.92L77.8049 21.02L78.4449 18.92L80.1049 13.86H82.3849ZM91.81 23.42C91.1167 23.7 90.4634 23.9 89.85 24.02C89.2367 24.14 88.6567 24.2 88.11 24.2C86.6034 24.2 85.4634 23.7733 84.69 22.92C83.9167 22.0667 83.53 20.9333 83.53 19.52V18.32C83.53 17.3733 83.7034 16.5533 84.05 15.86C84.3967 15.1667 84.89 14.6267 85.53 14.24C86.17 13.8533 86.9234 13.66 87.79 13.66C88.4967 13.66 89.1567 13.8067 89.77 14.1C90.3967 14.38 90.9034 14.8267 91.29 15.44C91.69 16.04 91.89 16.8133 91.89 17.76C91.89 18.04 91.87 18.34 91.83 18.66C91.79 18.9667 91.7234 19.2933 91.63 19.64H85.75C85.7767 20.4667 85.9834 21.0867 86.37 21.5C86.7567 21.9133 87.3767 22.12 88.23 22.12C88.6834 22.12 89.15 22.0667 89.63 21.96C90.1234 21.8533 90.63 21.6933 91.15 21.48L91.81 23.42ZM87.79 15.6C87.1767 15.6 86.6967 15.8 86.35 16.2C86.0167 16.5867 85.8234 17.1467 85.77 17.88H89.61C89.6234 17.8133 89.63 17.7533 89.63 17.7C89.63 17.6333 89.63 17.5733 89.63 17.52C89.63 16.88 89.45 16.4 89.09 16.08C88.73 15.76 88.2967 15.6 87.79 15.6ZM100.26 15.96C99.6331 15.96 99.0331 16.06 98.4597 16.26C97.8997 16.4467 97.3597 16.7533 96.8397 17.18V24H94.5397V13.86H96.7197V15.42C97.3997 14.78 98.0064 14.3267 98.5397 14.06C99.0731 13.7933 99.6464 13.66 100.26 13.66V15.96ZM105.114 22.2C105.607 22.2 106.014 22.12 106.334 21.96C106.654 21.7867 106.814 21.5333 106.814 21.2C106.814 20.9067 106.707 20.68 106.494 20.52C106.294 20.3467 105.927 20.1933 105.394 20.06L104.254 19.76C103.374 19.5333 102.721 19.1533 102.294 18.62C101.881 18.0867 101.674 17.4533 101.674 16.72C101.674 15.8533 101.974 15.1267 102.574 14.54C103.174 13.9533 104.101 13.66 105.354 13.66C105.861 13.66 106.394 13.72 106.954 13.84C107.514 13.96 108.101 14.1533 108.714 14.42L108.054 16.38C107.494 16.1133 106.987 15.9267 106.534 15.82C106.081 15.7133 105.681 15.66 105.334 15.66C104.387 15.66 103.914 15.98 103.914 16.62C103.914 16.8733 103.994 17.0733 104.154 17.22C104.327 17.3667 104.641 17.5 105.094 17.62L106.234 17.92C107.207 18.1733 107.914 18.56 108.354 19.08C108.807 19.6 109.034 20.2533 109.034 21.04C109.034 21.9733 108.714 22.7333 108.074 23.32C107.447 23.9067 106.454 24.2 105.094 24.2C103.934 24.2 102.714 23.9333 101.434 23.4L102.054 21.5C102.681 21.7533 103.247 21.9333 103.754 22.04C104.261 22.1467 104.714 22.2 105.114 22.2ZM113.755 11.94H111.335V9.56H113.755V11.94ZM113.695 24H111.395V13.86H113.695V24ZM122.964 23.66C122.617 23.82 122.217 23.9467 121.764 24.04C121.311 24.1467 120.851 24.2 120.384 24.2C119.611 24.2 118.991 24.04 118.524 23.72C118.057 23.4 117.717 22.9533 117.504 22.38C117.304 21.8067 117.204 21.1533 117.204 20.42V15.86H115.564V13.86H117.204V11.22H119.504V13.86H122.664V15.86H119.504V20.42C119.504 21.0333 119.617 21.46 119.844 21.7C120.084 21.9267 120.424 22.04 120.864 22.04C121.077 22.04 121.304 22.02 121.544 21.98C121.797 21.9267 122.077 21.84 122.384 21.72L122.964 23.66ZM128.913 25C128.473 26.2267 127.913 27.1067 127.233 27.64C126.553 28.1867 125.62 28.46 124.433 28.46V26.16C125.14 26.1333 125.693 25.9733 126.093 25.68C126.506 25.4 126.813 25.0067 127.013 24.5L127.193 24.04L123.573 13.86H125.853L127.593 18.92L128.273 21.06L128.933 18.92L130.593 13.86H132.873L128.913 25ZM139.098 24V10.4H141.298C142.351 11.7733 143.351 13.2267 144.298 14.76C145.244 16.28 146.104 17.8467 146.878 19.46L146.698 15.4V10.4H148.998V24H146.798C145.944 22.32 145.058 20.6333 144.138 18.94C143.231 17.2333 142.264 15.6267 141.238 14.12L141.398 18.8V24H139.098ZM160.75 18.32V19.52C160.75 20.9333 160.363 22.0667 159.59 22.92C158.817 23.7733 157.723 24.2 156.31 24.2C154.897 24.2 153.803 23.7733 153.03 22.92C152.257 22.0667 151.87 20.9333 151.87 19.52V18.32C151.87 16.9067 152.25 15.78 153.01 14.94C153.783 14.0867 154.883 13.66 156.31 13.66C157.737 13.66 158.83 14.0867 159.59 14.94C160.363 15.78 160.75 16.9067 160.75 18.32ZM158.39 18.32C158.39 17.5067 158.21 16.8733 157.85 16.42C157.49 15.9533 156.977 15.72 156.31 15.72C155.643 15.72 155.13 15.9533 154.77 16.42C154.41 16.8733 154.23 17.5067 154.23 18.32V19.52C154.23 20.3333 154.41 20.9733 154.77 21.44C155.13 21.9067 155.643 22.14 156.31 22.14C156.977 22.14 157.49 21.9067 157.85 21.44C158.21 20.9733 158.39 20.3333 158.39 19.52V18.32ZM169.049 15.96C168.422 15.96 167.822 16.06 167.249 16.26C166.689 16.4467 166.149 16.7533 165.629 17.18V24H163.329V13.86H165.509V15.42C166.189 14.78 166.795 14.3267 167.329 14.06C167.862 13.7933 168.435 13.66 169.049 13.66V15.96ZM177.163 23.66C176.816 23.82 176.416 23.9467 175.963 24.04C175.51 24.1467 175.05 24.2 174.583 24.2C173.81 24.2 173.19 24.04 172.723 23.72C172.256 23.4 171.916 22.9533 171.703 22.38C171.503 21.8067 171.403 21.1533 171.403 20.42V15.86H169.763V13.86H171.403V11.22H173.703V13.86H176.863V15.86H173.703V20.42C173.703 21.0333 173.816 21.46 174.043 21.7C174.283 21.9267 174.623 22.04 175.063 22.04C175.276 22.04 175.503 22.02 175.743 21.98C175.996 21.9267 176.276 21.84 176.583 21.72L177.163 23.66ZM183.972 15.8C183.639 15.8 183.259 15.88 182.832 16.04C182.406 16.2 181.899 16.5133 181.312 16.98V24H179.012V9.2H181.312V15.12C181.926 14.6 182.499 14.2267 183.032 14C183.566 13.7733 184.112 13.66 184.672 13.66C185.646 13.66 186.386 13.9733 186.892 14.6C187.399 15.2133 187.652 16.08 187.652 17.2V24H185.352V17.48C185.352 16.36 184.892 15.8 183.972 15.8Z" fill="#E30613"/>
<g clip-path="url(#clip0_2043_2)">
<path d="M0.000609413 16.1382C0.0258094 13.0315 0.801735 10.1384 2.39461 7.48888C3.68685 5.33734 5.37701 3.589 7.49615 2.28824C9.43904 1.0828 11.6174 0.330198 13.8764 0.0839052C16.7416 -0.229285 19.4404 0.339497 22.0037 1.65046C25.3167 3.3448 27.7072 5.94872 29.2397 9.39022C29.9941 11.0617 30.4576 12.8551 30.6093 14.6899C30.8765 18.0251 30.2412 21.1696 28.5944 24.0712C27.0326 26.8245 24.8121 28.8812 22.0682 30.3434C20.3849 31.235 18.5464 31.778 16.6578 31.9411C14.1689 32.1703 11.7889 31.7563 9.49457 30.755C7.64768 29.9555 5.96853 28.7993 4.54892 27.3495C2.23345 24.9861 0.79822 22.1452 0.225066 18.8507C0.0694455 17.9555 -0.00568765 17.0475 0.000609413 16.1382ZM4.25179 24.43C4.27231 24.019 4.24652 23.6548 4.24359 23.29C4.23128 21.79 4.23656 20.2901 4.23363 18.7901C4.23063 18.7306 4.24023 18.6711 4.26177 18.6157C4.28332 18.5603 4.3163 18.5103 4.35846 18.4691C5.30746 17.5212 6.25373 16.571 7.19727 15.6186C7.29865 15.516 7.36839 15.5142 7.46978 15.6186C8.45043 16.597 9.43304 17.5732 10.4176 18.5471C10.472 18.6013 10.5143 18.6668 10.5416 18.7394C10.5688 18.8119 10.5803 18.8896 10.5752 18.9671C10.5713 21.0971 10.5713 23.2268 10.5752 25.3563C10.5752 25.9005 10.5131 25.8231 11.0441 25.8411C11.2633 25.8483 11.3184 25.7607 11.3142 25.5519C11.3025 25.0497 11.3107 24.5469 11.3107 24.0448C11.3107 22.9424 11.3107 21.84 11.3107 20.7377C11.3107 20.6663 11.2849 20.5733 11.3693 20.5361C11.432 20.5079 11.4725 20.5775 11.5106 20.6207C12.1757 21.3688 12.838 22.1206 13.5031 22.8664C13.5536 22.9199 13.5929 22.9833 13.6186 23.0528C13.6444 23.1224 13.6562 23.1965 13.6532 23.2708C13.6473 23.9688 13.6473 24.6661 13.6532 25.3629C13.6584 25.8843 13.5576 25.8309 14.1507 25.8363C14.2914 25.8363 14.35 25.7763 14.3476 25.6353C14.3435 25.3803 14.3617 25.1241 14.3412 24.8703C14.3201 24.6057 14.4127 24.4228 14.6037 24.2464C15.9141 23.038 17.2169 21.817 18.522 20.6015C18.7658 20.3747 19.0126 20.1509 19.2581 19.9259C19.2892 19.8971 19.3167 19.8497 19.3677 19.8707C19.4187 19.8917 19.4052 19.9457 19.4076 19.9907C19.4076 20.0435 19.4076 20.0957 19.4076 20.1485C19.4076 21.8736 19.4076 23.5986 19.4076 25.3233C19.4076 25.9179 19.3384 25.8261 19.911 25.8351C20.2351 25.8405 20.2345 25.8351 20.2345 25.4997C20.2345 23.3548 20.2345 21.2098 20.2292 19.0655C20.2246 18.9766 20.2405 18.8879 20.2757 18.8065C20.3108 18.7251 20.3641 18.6533 20.4314 18.5969C20.9037 18.1709 21.3655 17.733 21.8315 17.2992C22.6605 16.5284 23.4904 15.7578 24.321 14.9874C24.3761 14.9358 24.4382 14.8368 24.5185 14.8752C24.5988 14.9136 24.5601 15.024 24.5601 15.102C24.5601 18.2663 24.5601 21.431 24.5601 24.5961C24.5601 24.9413 24.5601 25.2863 24.5601 25.6311C24.5601 25.7031 24.5413 25.8027 24.6351 25.8207C24.7998 25.8519 24.9803 25.8807 25.1315 25.8081C25.2534 25.7481 25.1901 25.5897 25.1901 25.4763C25.1924 22.2664 25.1924 19.0565 25.1901 15.8466C25.1901 15.7764 25.1514 15.6768 25.2305 15.6426C25.3096 15.6084 25.3542 15.7026 25.4011 15.7554C25.8078 16.197 26.2081 16.6452 26.6195 17.0832C26.6785 17.143 26.7247 17.2149 26.755 17.2942C26.7853 17.3735 26.799 17.4583 26.7953 17.5434C26.7902 19.5153 26.789 21.4876 26.7918 23.4604V23.83C26.8984 23.7257 26.9875 23.604 27.0555 23.47C28.1441 21.5966 28.8035 19.4948 28.9841 17.3228C29.1646 15.1508 28.8617 12.9652 28.0981 10.9304C27.3991 9.04645 26.3277 7.33062 24.9508 5.89038C23.574 4.45015 21.9215 3.31656 20.0968 2.56063C17.4904 1.48586 14.827 1.30907 12.1066 2.03024C9.57193 2.70762 7.40649 4.03958 5.60146 5.98052C4.50897 7.15629 3.61357 8.50863 2.95136 9.983C1.85135 12.4087 1.45752 14.9568 1.71304 17.6088C1.89395 19.4572 2.428 21.2511 3.28482 22.8886C3.56597 23.4283 3.88935 23.9437 4.25179 24.43ZM15.3451 26.9259V26.9295H10.4891C9.53696 26.9295 8.58464 26.9295 7.63212 26.9295C7.4563 26.9295 7.33206 26.9949 7.31741 27.1935C7.30393 27.3771 7.427 27.5145 7.62098 27.5343C7.67213 27.537 7.72338 27.537 7.77452 27.5343C12.8294 27.5343 17.8836 27.5343 22.9373 27.5343C23.0247 27.5379 23.1122 27.5284 23.1969 27.5061C23.3335 27.4635 23.4349 27.3669 23.4191 27.2109C23.4136 27.1386 23.3831 27.0707 23.333 27.0195C23.2829 26.9684 23.2165 26.9373 23.146 26.9319C23.0657 26.9238 22.9851 26.9214 22.9045 26.9247L15.3451 26.9259ZM15.3345 28.328H10.1732C10.0927 28.3254 10.0121 28.3276 9.93176 28.3346C9.869 28.3397 9.80968 28.3661 9.76319 28.4095C9.71671 28.453 9.6857 28.5111 9.67507 28.5746C9.64284 28.7096 9.70086 28.8086 9.80518 28.8824C9.90232 28.9514 10.0205 28.9821 10.1381 28.9688C10.2986 28.9556 10.4598 28.9466 10.6204 28.9466C13.9073 28.9466 17.1945 28.9466 20.4818 28.9466C20.5697 28.9466 20.6576 28.9466 20.7449 28.9412C20.8938 28.931 20.9981 28.8572 21.0151 28.7012C21.0265 28.6299 21.0134 28.5567 20.978 28.4941C20.9427 28.4315 20.8872 28.3834 20.8211 28.358C20.7377 28.3292 20.6491 28.3191 20.5615 28.3286L15.3345 28.328ZM8.58151 20.3981C8.58151 19.7135 8.04469 19.1513 7.39301 19.1579C7.07822 19.1604 6.77665 19.2878 6.55171 19.5133C6.32678 19.7387 6.19602 20.0447 6.18692 20.3669C6.17462 21.0269 6.72843 21.5974 7.38656 21.6028C7.54237 21.6043 7.69693 21.5743 7.84138 21.5146C7.98584 21.4548 8.11735 21.3664 8.22836 21.2545C8.33938 21.1425 8.42772 21.0093 8.48832 20.8623C8.54892 20.7153 8.58059 20.5576 8.58151 20.3981ZM8.40101 24.7983C8.40101 24.5211 8.39515 24.244 8.40101 23.9668C8.4057 23.8078 8.36057 23.7346 8.1912 23.737C7.6497 23.7442 7.1076 23.743 6.5661 23.737C6.419 23.737 6.35512 23.782 6.35688 23.9428C6.36391 24.5047 6.36391 25.0669 6.35688 25.6293C6.35688 25.7889 6.41841 25.8375 6.5661 25.8357C7.1076 25.8303 7.6497 25.8291 8.1912 25.8357C8.35823 25.8357 8.40746 25.7673 8.40277 25.6071C8.39515 25.3383 8.40101 25.0683 8.40101 24.7983ZM22.7351 22.4752C22.7351 21.4404 22.7351 20.4055 22.7351 19.3703C22.7351 19.1063 22.6226 18.9659 22.4257 18.9665C22.2288 18.9671 22.1274 19.0865 22.1274 19.3703C22.1274 21.4318 22.1274 23.4936 22.1274 25.5555C22.1274 25.8363 22.1321 25.8255 22.465 25.8393C22.6771 25.8483 22.7422 25.7733 22.7404 25.5573C22.7299 24.5301 22.7351 23.503 22.7351 22.4752ZM15.4306 29.7668C14.6688 29.7668 13.9069 29.7668 13.1451 29.7668C13.0073 29.7668 12.8972 29.813 12.8415 29.9468C12.817 29.9979 12.8072 30.0552 12.8134 30.1118C12.8195 30.1685 12.8412 30.2221 12.8761 30.2666C12.9154 30.3164 12.9657 30.3562 13.0228 30.3825C13.0799 30.4089 13.1423 30.4212 13.2048 30.4184L17.6869 30.3902C17.7014 30.3911 17.7159 30.3911 17.7303 30.3902C17.9172 30.368 18.0315 30.2648 18.0286 30.0686C18.0257 29.8724 17.9114 29.7686 17.7156 29.7686L15.4306 29.7668ZM12.7975 24.6837C12.7975 24.3616 12.8069 24.0388 12.7975 23.7172C12.7876 23.4436 12.5584 23.2918 12.3433 23.4046C12.2033 23.479 12.1675 23.6128 12.1675 23.7646C12.1675 24.3118 12.1675 24.8589 12.1675 25.4061C12.1675 25.8531 12.1675 25.8459 12.5965 25.8375C12.7647 25.8375 12.8093 25.7631 12.8057 25.6053C12.7923 25.2987 12.7975 24.9909 12.7975 24.6837ZM17.0569 24.9681V24.6531C17.0569 24.5481 17.0569 24.4431 17.0569 24.3382C17.0499 24.0802 16.9362 23.9296 16.7475 23.9242C16.5465 23.9176 16.4293 24.0646 16.4304 24.3442C16.4304 24.7041 16.4709 25.0641 16.4457 25.4241C16.4152 25.8675 16.4205 25.8297 16.86 25.8357C17.0159 25.8357 17.0663 25.7715 17.061 25.6203C17.0511 25.4031 17.0569 25.1853 17.0569 24.9681Z" fill="#E30613"/>
<path d="M22.7544 9.78628C22.7133 11.249 22.309 12.6284 21.5887 13.9112C20.5831 15.7021 19.3213 17.295 17.9552 18.8094C17.1605 19.6922 16.3311 20.5381 15.4669 21.3473C15.328 21.4769 15.2459 21.4775 15.1053 21.3473C13.5581 19.9018 12.131 18.327 10.8389 16.6393C9.94806 15.4807 9.13932 14.2693 8.55327 12.9194C8.0903 11.8502 7.8424 10.7277 7.87756 9.55469C7.98305 5.9896 10.4814 3.02929 13.8148 2.42211C15.3924 2.13472 16.9209 2.24212 18.3918 2.9171C19.8833 3.60047 21.029 4.68584 21.8226 6.14799C22.4379 7.26816 22.7256 8.48132 22.7544 9.78628ZM20.9687 9.79768C20.9769 6.62858 18.4282 3.99346 15.3426 3.98086C12.1616 3.96826 9.68376 6.54578 9.66324 9.66928C9.64097 13.0682 12.2167 15.4975 15.2952 15.5215C18.4041 15.5461 20.9599 12.9584 20.9675 9.79768H20.9687Z" fill="#E30613"/>
<path d="M15.4137 5.80721C16.1959 5.80733 16.9604 6.04488 17.6107 6.48982C18.2609 6.93477 18.7677 7.56713 19.0669 8.30694C19.3662 9.04675 19.4444 9.86078 19.2917 10.6461C19.1391 11.4314 18.7624 12.1528 18.2093 12.7189C17.6562 13.2851 16.9516 13.6706 16.1845 13.8268C15.4173 13.983 14.6222 13.9028 13.8996 13.5963C13.1771 13.2899 12.5595 12.7709 12.1249 12.1051C11.6904 11.4394 11.4585 10.6566 11.4585 9.85588C11.4596 8.78235 11.8767 7.7531 12.6182 6.99405C13.3597 6.235 14.3651 5.80816 15.4137 5.80721ZM15.4137 3.88727C14.2607 3.88727 13.1335 4.23732 12.1748 4.89316C11.216 5.549 10.4688 6.48117 10.0275 7.57179C9.58627 8.66241 9.47081 9.8625 9.69576 11.0203C9.92072 12.1781 10.476 13.2416 11.2913 14.0763C12.1066 14.9111 13.1455 15.4795 14.2764 15.7098C15.4073 15.9401 16.5795 15.8219 17.6448 15.3702C18.7101 14.9184 19.6206 14.1534 20.2612 13.1719C20.9018 12.1903 21.2437 11.0364 21.2437 9.85588C21.2437 9.07207 21.0929 8.29594 20.8 7.57179C20.507 6.84765 20.0775 6.18967 19.5362 5.63544C18.9948 5.0812 18.3521 4.64155 17.6448 4.3416C16.9375 4.04165 16.1793 3.88727 15.4137 3.88727Z" fill="#E30613"/>
</g>
<defs>
<clipPath id="clip0_2043_2">
<rect width="30.6667" height="32" fill="white"/>
</clipPath>
</defs>
</svg>
