<svg width="197" height="38" viewBox="0 0 197 38" fill="none" xmlns="http://www.w3.org/2000/svg">
<path d="M48.3642 24.9801C49.9108 24.9801 50.6842 24.4068 50.6842 23.2601C50.6842 22.7934 50.5642 22.4268 50.3242 22.1601C50.0975 21.8934 49.6708 21.6601 49.0442 21.4601L47.4042 20.9201C45.4442 20.2801 44.4642 18.9934 44.4642 17.0601C44.4642 15.9401 44.8108 15.0201 45.5042 14.3001C46.2108 13.5668 47.3108 13.2001 48.8042 13.2001C49.4308 13.2001 50.0508 13.2734 50.6642 13.4201C51.2775 13.5534 51.9308 13.7734 52.6242 14.0801L51.8842 16.1401C51.2442 15.8868 50.6975 15.7068 50.2442 15.6001C49.8042 15.4801 49.3508 15.4201 48.8842 15.4201C48.2708 15.4201 47.7842 15.5334 47.4242 15.7601C47.0775 15.9734 46.9042 16.3668 46.9042 16.9401C46.9042 17.3668 47.0242 17.7201 47.2642 18.0001C47.5175 18.2668 47.9308 18.4934 48.5042 18.6801L50.1442 19.2201C51.1308 19.5534 51.8708 20.0401 52.3642 20.6801C52.8708 21.3068 53.1242 22.1401 53.1242 23.1801C53.1242 24.3801 52.7442 25.3534 51.9842 26.1001C51.2242 26.8334 50.0308 27.2001 48.4042 27.2001C47.7642 27.2001 47.0975 27.1268 46.4042 26.9801C45.7242 26.8201 44.9775 26.5534 44.1642 26.1801L44.9042 24.1201C45.6508 24.4401 46.2842 24.6668 46.8042 24.8001C47.3375 24.9201 47.8575 24.9801 48.3642 24.9801ZM63.0079 16.8601L59.4079 27.0001H57.3079L53.7079 16.8601H56.0279L57.7679 21.9201L58.4279 24.0201L59.0679 21.9201L60.7279 16.8601H63.0079ZM72.4331 26.4201C71.7397 26.7001 71.0864 26.9001 70.4731 27.0201C69.8597 27.1401 69.2797 27.2001 68.7331 27.2001C67.2264 27.2001 66.0864 26.7734 65.3131 25.9201C64.5397 25.0668 64.1531 23.9334 64.1531 22.5201V21.3201C64.1531 20.3734 64.3264 19.5534 64.6731 18.8601C65.0197 18.1668 65.5131 17.6268 66.1531 17.2401C66.7931 16.8534 67.5464 16.6601 68.4131 16.6601C69.1197 16.6601 69.7797 16.8068 70.3931 17.1001C71.0197 17.3801 71.5264 17.8268 71.9131 18.4401C72.3131 19.0401 72.5131 19.8134 72.5131 20.7601C72.5131 21.0401 72.4931 21.3401 72.4531 21.6601C72.4131 21.9668 72.3464 22.2934 72.2531 22.6401H66.3731C66.3997 23.4668 66.6064 24.0868 66.9931 24.5001C67.3797 24.9134 67.9997 25.1201 68.8531 25.1201C69.3064 25.1201 69.7731 25.0668 70.2531 24.9601C70.7464 24.8534 71.2531 24.6934 71.7731 24.4801L72.4331 26.4201ZM68.4131 18.6001C67.7997 18.6001 67.3197 18.8001 66.9731 19.2001C66.6397 19.5868 66.4464 20.1468 66.3931 20.8801H70.2331C70.2464 20.8134 70.2531 20.7534 70.2531 20.7001C70.2531 20.6334 70.2531 20.5734 70.2531 20.5201C70.2531 19.8801 70.0731 19.4001 69.7131 19.0801C69.3531 18.7601 68.9197 18.6001 68.4131 18.6001ZM81.2028 27.0001V25.6601C80.5894 26.1934 80.0161 26.5868 79.4828 26.8401C78.9494 27.0801 78.4094 27.2001 77.8628 27.2001C76.9561 27.2001 76.2561 26.8934 75.7628 26.2801C75.2694 25.6534 75.0228 24.7801 75.0228 23.6601V16.8601H77.3228V23.3801C77.3228 24.5001 77.7361 25.0601 78.5628 25.0601C78.8961 25.0601 79.2561 24.9801 79.6428 24.8201C80.0428 24.6601 80.5228 24.3534 81.0828 23.9001V16.8601H83.3828V27.0001H81.2028ZM88.3095 21.3401V22.5201C88.3095 23.3734 88.4628 24.0134 88.7695 24.4401C89.0761 24.8668 89.5695 25.0801 90.2495 25.0801C90.5828 25.0801 90.9561 25.0401 91.3695 24.9601C91.7961 24.8668 92.2561 24.7268 92.7495 24.5401L93.4095 26.4801C92.8095 26.7201 92.2428 26.9001 91.7095 27.0201C91.1761 27.1401 90.6495 27.2001 90.1295 27.2001C88.7961 27.2001 87.7761 26.7734 87.0695 25.9201C86.3628 25.0668 86.0095 23.9334 86.0095 22.5201V21.3401C86.0095 19.9134 86.3628 18.7801 87.0695 17.9401C87.7761 17.0868 88.7961 16.6601 90.1295 16.6601C90.6361 16.6601 91.1495 16.7201 91.6695 16.8401C92.1895 16.9601 92.7361 17.1334 93.3095 17.3601L92.6495 19.3401C91.6895 18.9668 90.8895 18.7801 90.2495 18.7801C89.5695 18.7801 89.0761 18.9934 88.7695 19.4201C88.4628 19.8334 88.3095 20.4734 88.3095 21.3401ZM93.1495 12.2001L91.2295 15.4201H88.9895L87.0695 12.2001H88.9295L90.1495 13.8001L91.3695 12.2001H93.1495ZM97.8743 14.9401H95.4543V12.5601H97.8743V14.9401ZM97.8143 27.0001H95.5143V16.8601H97.8143V27.0001ZM100.923 24.1401V12.2001H103.223V24.1401C103.223 24.3401 103.27 24.5334 103.363 24.7201C103.47 24.8934 103.67 24.9801 103.963 24.9801H104.283V27.1001H103.723C102.963 27.1001 102.383 26.9534 101.983 26.6601C101.583 26.3668 101.303 25.9934 101.143 25.5401C100.996 25.0868 100.923 24.6201 100.923 24.1401ZM108.87 14.9401H106.45V12.5601H108.87V14.9401ZM108.81 27.0001H106.51V16.8601H108.81V27.0001ZM114.819 25.2001C115.313 25.2001 115.719 25.1201 116.039 24.9601C116.359 24.7868 116.519 24.5334 116.519 24.2001C116.519 23.9068 116.413 23.6801 116.199 23.5201C115.999 23.3468 115.633 23.1934 115.099 23.0601L113.959 22.7601C113.079 22.5334 112.426 22.1534 111.999 21.6201C111.586 21.0868 111.379 20.4534 111.379 19.7201C111.379 18.8534 111.679 18.1268 112.279 17.5401C112.879 16.9534 113.806 16.6601 115.059 16.6601C115.566 16.6601 116.099 16.7201 116.659 16.8401C117.219 16.9601 117.806 17.1534 118.419 17.4201L117.759 19.3801C117.199 19.1134 116.693 18.9268 116.239 18.8201C115.786 18.7134 115.386 18.6601 115.039 18.6601C114.093 18.6601 113.619 18.9801 113.619 19.6201C113.619 19.8734 113.699 20.0734 113.859 20.2201C114.033 20.3668 114.346 20.5001 114.799 20.6201L115.939 20.9201C116.913 21.1734 117.619 21.5601 118.059 22.0801C118.513 22.6001 118.739 23.2534 118.739 24.0401C118.739 24.9734 118.419 25.7334 117.779 26.3201C117.153 26.9068 116.159 27.2001 114.799 27.2001C113.639 27.2001 112.419 26.9334 111.139 26.4001L111.759 24.5001C112.386 24.7534 112.953 24.9334 113.459 25.0401C113.966 25.1468 114.419 25.2001 114.819 25.2001ZM118.019 12.2001L116.099 15.4201H113.859L111.939 12.2001H113.799L115.019 13.8001L116.239 12.2001H118.019ZM127.2 26.6601C126.854 26.8201 126.454 26.9468 126 27.0401C125.547 27.1468 125.087 27.2001 124.62 27.2001C123.847 27.2001 123.227 27.0401 122.76 26.7201C122.294 26.4001 121.954 25.9534 121.74 25.3801C121.54 24.8068 121.44 24.1534 121.44 23.4201V18.8601H119.8V16.8601H121.44V14.2201H123.74V16.8601H126.9V18.8601H123.74V23.4201C123.74 24.0334 123.854 24.4601 124.08 24.7001C124.32 24.9268 124.66 25.0401 125.1 25.0401C125.314 25.0401 125.54 25.0201 125.78 24.9801C126.034 24.9268 126.314 24.8401 126.62 24.7201L127.2 26.6601ZM136.749 26.4201C136.056 26.7001 135.403 26.9001 134.789 27.0201C134.176 27.1401 133.596 27.2001 133.049 27.2001C131.543 27.2001 130.403 26.7734 129.629 25.9201C128.856 25.0668 128.469 23.9334 128.469 22.5201V21.3201C128.469 20.3734 128.643 19.5534 128.989 18.8601C129.336 18.1668 129.829 17.6268 130.469 17.2401C131.109 16.8534 131.863 16.6601 132.729 16.6601C133.436 16.6601 134.096 16.8068 134.709 17.1001C135.336 17.3801 135.843 17.8268 136.229 18.4401C136.629 19.0401 136.829 19.8134 136.829 20.7601C136.829 21.0401 136.809 21.3401 136.769 21.6601C136.729 21.9668 136.663 22.2934 136.569 22.6401H130.689C130.716 23.4668 130.923 24.0868 131.309 24.5001C131.696 24.9134 132.316 25.1201 133.169 25.1201C133.623 25.1201 134.089 25.0668 134.569 24.9601C135.063 24.8534 135.569 24.6934 136.089 24.4801L136.749 26.4201ZM132.729 18.6001C132.116 18.6001 131.636 18.8001 131.289 19.2001C130.956 19.5868 130.763 20.1468 130.709 20.8801H134.549C134.563 20.8134 134.569 20.7534 134.569 20.7001C134.569 20.6334 134.569 20.5734 134.569 20.5201C134.569 19.8801 134.389 19.4001 134.029 19.0801C133.669 18.7601 133.236 18.6001 132.729 18.6001ZM146.743 24.9801C148.29 24.9801 149.063 24.4068 149.063 23.2601C149.063 22.7934 148.943 22.4268 148.703 22.1601C148.476 21.8934 148.05 21.6601 147.423 21.4601L145.783 20.9201C143.823 20.2801 142.843 18.9934 142.843 17.0601C142.843 15.9401 143.19 15.0201 143.883 14.3001C144.59 13.5668 145.69 13.2001 147.183 13.2001C147.81 13.2001 148.43 13.2734 149.043 13.4201C149.656 13.5534 150.31 13.7734 151.003 14.0801L150.263 16.1401C149.623 15.8868 149.076 15.7068 148.623 15.6001C148.183 15.4801 147.73 15.4201 147.263 15.4201C146.65 15.4201 146.163 15.5334 145.803 15.7601C145.456 15.9734 145.283 16.3668 145.283 16.9401C145.283 17.3668 145.403 17.7201 145.643 18.0001C145.896 18.2668 146.31 18.4934 146.883 18.6801L148.523 19.2201C149.51 19.5534 150.25 20.0401 150.743 20.6801C151.25 21.3068 151.503 22.1401 151.503 23.1801C151.503 24.3801 151.123 25.3534 150.363 26.1001C149.603 26.8334 148.41 27.2001 146.783 27.2001C146.143 27.2001 145.476 27.1268 144.783 26.9801C144.103 26.8201 143.356 26.5534 142.543 26.1801L143.283 24.1201C144.03 24.4401 144.663 24.6668 145.183 24.8001C145.716 24.9201 146.236 24.9801 146.743 24.9801ZM156.195 14.9401H153.775V12.5601H156.195V14.9401ZM151.755 31.4601V29.3001C152.421 29.3001 152.935 29.1401 153.295 28.8201C153.655 28.5001 153.835 27.9201 153.835 27.0801V16.8601H156.135V27.0801C156.135 27.8401 156.008 28.5534 155.755 29.2201C155.515 29.8868 155.075 30.4268 154.435 30.8401C153.808 31.2534 152.915 31.4601 151.755 31.4601ZM167.003 26.4201C166.31 26.7001 165.657 26.9001 165.043 27.0201C164.43 27.1401 163.85 27.2001 163.303 27.2001C161.797 27.2001 160.657 26.7734 159.883 25.9201C159.11 25.0668 158.723 23.9334 158.723 22.5201V21.3201C158.723 20.3734 158.897 19.5534 159.243 18.8601C159.59 18.1668 160.083 17.6268 160.723 17.2401C161.363 16.8534 162.117 16.6601 162.983 16.6601C163.69 16.6601 164.35 16.8068 164.963 17.1001C165.59 17.3801 166.097 17.8268 166.483 18.4401C166.883 19.0401 167.083 19.8134 167.083 20.7601C167.083 21.0401 167.063 21.3401 167.023 21.6601C166.983 21.9668 166.917 22.2934 166.823 22.6401H160.943C160.97 23.4668 161.177 24.0868 161.563 24.5001C161.95 24.9134 162.57 25.1201 163.423 25.1201C163.877 25.1201 164.343 25.0668 164.823 24.9601C165.317 24.8534 165.823 24.6934 166.343 24.4801L167.003 26.4201ZM162.983 18.6001C162.37 18.6001 161.89 18.8001 161.543 19.2001C161.21 19.5868 161.017 20.1468 160.963 20.8801H164.803C164.817 20.8134 164.823 20.7534 164.823 20.7001C164.823 20.6334 164.823 20.5734 164.823 20.5201C164.823 19.8801 164.643 19.4001 164.283 19.0801C163.923 18.7601 163.49 18.6001 162.983 18.6001ZM177.695 16.8601L174.095 27.0001H171.995L168.395 16.8601H170.715L172.455 21.9201L173.115 24.0201L173.755 21.9201L175.415 16.8601H177.695ZM187.121 26.4201C186.427 26.7001 185.774 26.9001 185.161 27.0201C184.547 27.1401 183.967 27.2001 183.421 27.2001C181.914 27.2001 180.774 26.7734 180.001 25.9201C179.227 25.0668 178.841 23.9334 178.841 22.5201V21.3201C178.841 20.3734 179.014 19.5534 179.361 18.8601C179.707 18.1668 180.201 17.6268 180.841 17.2401C181.481 16.8534 182.234 16.6601 183.101 16.6601C183.807 16.6601 184.467 16.8068 185.081 17.1001C185.707 17.3801 186.214 17.8268 186.601 18.4401C187.001 19.0401 187.201 19.8134 187.201 20.7601C187.201 21.0401 187.181 21.3401 187.141 21.6601C187.101 21.9668 187.034 22.2934 186.941 22.6401H181.061C181.087 23.4668 181.294 24.0868 181.681 24.5001C182.067 24.9134 182.687 25.1201 183.541 25.1201C183.994 25.1201 184.461 25.0668 184.941 24.9601C185.434 24.8534 185.941 24.6934 186.461 24.4801L187.121 26.4201ZM183.101 18.6001C182.487 18.6001 182.007 18.8001 181.661 19.2001C181.327 19.5868 181.134 20.1468 181.081 20.8801H184.921C184.934 20.8134 184.941 20.7534 184.941 20.7001C184.941 20.6334 184.941 20.5734 184.941 20.5201C184.941 19.8801 184.761 19.4001 184.401 19.0801C184.041 18.7601 183.607 18.6001 183.101 18.6001ZM195.57 18.9601C194.944 18.9601 194.344 19.0601 193.77 19.2601C193.21 19.4468 192.67 19.7534 192.15 20.1801V27.0001H189.85V16.8601H192.03V18.4201C192.71 17.7801 193.317 17.3268 193.85 17.0601C194.384 16.7934 194.957 16.6601 195.57 16.6601V18.9601Z" fill="#E30613"/>
<g clip-path="url(#clip0_4_2489)">
<path d="M0.000911413 18.6942C0.0301031 15.0954 0.928934 11.744 2.77412 8.67484C4.27104 6.18251 6.22892 4.15723 8.68373 2.65043C10.9344 1.25406 13.4578 0.382244 16.0747 0.0969387C19.3937 -0.26586 22.5199 0.393016 25.4893 1.91163C29.327 3.87436 32.0961 6.89073 33.8714 10.8774C34.7453 12.8136 35.2822 14.8911 35.4579 17.0164C35.7675 20.88 35.0316 24.5226 33.1239 27.8837C31.3147 31.0732 28.7425 33.4557 25.564 35.1494C23.6141 36.1823 21.4843 36.8113 19.2966 37.0003C16.4134 37.2658 13.6565 36.7862 10.9987 35.6262C8.85927 34.7002 6.91414 33.3608 5.26967 31.6813C2.58743 28.9436 0.924862 25.6527 0.260921 21.8364C0.080651 20.7993 -0.0063831 19.7475 0.000911413 18.6942ZM4.92548 28.2994C4.94924 27.8233 4.91937 27.4014 4.91597 26.9788C4.90172 25.2413 4.90783 23.5037 4.90443 21.7662C4.90095 21.6972 4.91208 21.6283 4.93703 21.5641C4.96199 21.4999 5.00019 21.442 5.04903 21.3944C6.14836 20.2962 7.24452 19.1956 8.33751 18.0923C8.45495 17.9735 8.53574 17.9714 8.65318 18.0923C9.78917 19.2257 10.9274 20.3565 12.0679 21.4847C12.131 21.5474 12.18 21.6234 12.2115 21.7074C12.2431 21.7914 12.2564 21.8814 12.2505 21.9712C12.246 24.4385 12.246 26.9056 12.2505 29.3725C12.2505 30.0028 12.1786 29.9132 12.7936 29.934C13.0475 29.9424 13.1114 29.8409 13.1066 29.599C13.093 29.0173 13.1025 28.4349 13.1025 27.8532C13.1025 26.5762 13.1025 25.2992 13.1025 24.0222C13.1025 23.9395 13.0727 23.8318 13.1704 23.7887C13.2431 23.756 13.2899 23.8366 13.334 23.8867C14.1046 24.7534 14.8717 25.6242 15.6422 26.4881C15.7006 26.5501 15.7461 26.6236 15.776 26.7041C15.8059 26.7846 15.8195 26.8705 15.816 26.9566C15.8092 27.7651 15.8092 28.573 15.816 29.3801C15.8221 29.9841 15.7053 29.9222 16.3924 29.9285C16.5553 29.9285 16.6232 29.859 16.6205 29.6956C16.6157 29.4003 16.6368 29.1035 16.613 28.8095C16.5886 28.503 16.6958 28.291 16.9171 28.0867C18.4351 26.6869 19.9443 25.2726 21.4561 23.8644C21.7385 23.6017 22.0243 23.3425 22.3088 23.0819C22.3448 23.0485 22.3767 22.9936 22.4357 23.0179C22.4948 23.0422 22.4792 23.1048 22.4819 23.1569C22.4819 23.2181 22.4819 23.2785 22.4819 23.3397C22.4819 25.3381 22.4819 27.3363 22.4819 29.3342C22.4819 30.023 22.4018 29.9167 23.065 29.9271C23.4405 29.9333 23.4398 29.9271 23.4398 29.5386C23.4398 27.0539 23.4398 24.5692 23.4337 22.0852C23.4284 21.9823 23.4468 21.8795 23.4875 21.7852C23.5282 21.6909 23.59 21.6077 23.6679 21.5424C24.2151 21.0489 24.75 20.5416 25.2897 20.0391C26.2501 19.1462 27.2114 18.2536 28.1736 17.3612C28.2374 17.3014 28.3094 17.1867 28.4024 17.2312C28.4954 17.2757 28.4506 17.4036 28.4506 17.4939C28.4506 21.1594 28.4506 24.8254 28.4506 28.4919C28.4506 28.8917 28.4506 29.2914 28.4506 29.6908C28.4506 29.7742 28.4288 29.8896 28.5375 29.9104C28.7282 29.9465 28.9373 29.9799 29.1125 29.8958C29.2537 29.8263 29.1804 29.6428 29.1804 29.5115C29.1831 25.7931 29.1831 22.0748 29.1804 18.3564C29.1804 18.2751 29.1355 18.1597 29.2272 18.1201C29.3188 18.0805 29.3704 18.1896 29.4248 18.2508C29.8959 18.7623 30.3596 19.2815 30.8361 19.7889C30.9046 19.8582 30.9581 19.9415 30.9931 20.0333C31.0282 20.1251 31.0441 20.2234 31.0398 20.3219C31.0339 22.6062 31.0326 24.891 31.0357 27.1762V27.6043C31.1593 27.4835 31.2625 27.3426 31.3412 27.1873C32.6023 25.0172 33.3661 22.5825 33.5753 20.0665C33.7845 17.5504 33.4336 15.0186 32.5489 12.6615C31.7393 10.4791 30.4981 8.49152 28.9032 6.82315C27.3083 5.15479 25.394 3.84163 23.2802 2.96597C20.2611 1.72096 17.1758 1.51616 14.0244 2.35157C11.0883 3.13625 8.57987 4.67919 6.48893 6.92757C5.22339 8.28958 4.18615 9.85612 3.41905 11.564C2.1448 14.374 1.6886 17.3257 1.98459 20.3977C2.19415 22.5389 2.8128 24.617 3.80533 26.5139C4.13102 27.139 4.50562 27.7361 4.92548 28.2994ZM17.7759 31.1906V31.1948H12.1508C11.0478 31.1948 9.94463 31.1948 8.84123 31.1948C8.63757 31.1948 8.49365 31.2706 8.47668 31.5006C8.46106 31.7133 8.60363 31.8724 8.82833 31.8954C8.88758 31.8985 8.94695 31.8985 9.0062 31.8954C14.8617 31.8954 20.7166 31.8954 26.5708 31.8954C26.672 31.8996 26.7734 31.8886 26.8715 31.8627C27.0297 31.8134 27.1471 31.7015 27.1288 31.5208C27.1225 31.4371 27.0872 31.3584 27.0291 31.2991C26.9711 31.2398 26.8942 31.2038 26.8124 31.1976C26.7195 31.1882 26.626 31.1854 26.5327 31.1892L17.7759 31.1906ZM17.7637 32.8149H11.7848C11.6915 32.8119 11.5981 32.8144 11.5051 32.8225C11.4324 32.8284 11.3637 32.8589 11.3099 32.9093C11.256 32.9596 11.2201 33.0269 11.2078 33.1005C11.1705 33.2569 11.2377 33.3716 11.3585 33.4571C11.471 33.537 11.608 33.5725 11.7441 33.5572C11.9301 33.5419 12.1168 33.5314 12.3028 33.5314C16.1104 33.5314 19.9182 33.5314 23.7263 33.5314C23.8281 33.5314 23.9299 33.5314 24.0311 33.5252C24.2035 33.5134 24.3244 33.4279 24.344 33.2472C24.3573 33.1645 24.3421 33.0798 24.3011 33.0073C24.2602 32.9348 24.1959 32.8791 24.1193 32.8496C24.0227 32.8162 23.9201 32.8046 23.8186 32.8156L17.7637 32.8149ZM9.94101 23.6288C9.94101 22.8358 9.31916 22.1846 8.56425 22.1922C8.1996 22.1951 7.85026 22.3427 7.5897 22.6039C7.32914 22.8651 7.17766 23.2195 7.16713 23.5927C7.15287 24.3572 7.79441 25.0182 8.55679 25.0244C8.73727 25.0262 8.91631 24.9914 9.08365 24.9222C9.25099 24.8529 9.40333 24.7505 9.53193 24.6209C9.66053 24.4912 9.76286 24.3368 9.83306 24.1666C9.90326 23.9964 9.93995 23.8136 9.94101 23.6288ZM9.73192 28.7261C9.73192 28.405 9.72513 28.0839 9.73192 27.7628C9.73735 27.5786 9.68507 27.4938 9.48888 27.4966C8.8616 27.5049 8.23364 27.5036 7.60636 27.4966C7.43596 27.4966 7.36196 27.5487 7.364 27.735C7.37215 28.386 7.37215 29.0372 7.364 29.6887C7.364 29.8736 7.43528 29.9299 7.60636 29.9278C8.23364 29.9215 8.8616 29.9201 9.48888 29.9278C9.68236 29.9278 9.73939 29.8485 9.73396 29.663C9.72513 29.3516 9.73192 29.0389 9.73192 28.7261ZM26.3365 26.035C26.3365 24.8363 26.3365 23.6374 26.3365 22.4383C26.3365 22.1325 26.2062 21.9698 25.9781 21.9705C25.75 21.9712 25.6325 22.1095 25.6325 22.4383C25.6325 24.8264 25.6325 27.2147 25.6325 29.6032C25.6325 29.9285 25.638 29.916 26.0236 29.9319C26.2693 29.9424 26.3447 29.8555 26.3427 29.6053C26.3304 28.4154 26.3365 27.2256 26.3365 26.035ZM17.875 34.4815C16.9925 34.4815 16.11 34.4815 15.2274 34.4815C15.0679 34.4815 14.9403 34.535 14.8758 34.69C14.8474 34.7493 14.8361 34.8156 14.8432 34.8812C14.8503 34.9468 14.8755 35.009 14.9158 35.0605C14.9614 35.1183 15.0197 35.1643 15.0858 35.1948C15.1519 35.2253 15.2242 35.2396 15.2967 35.2363L20.4887 35.2037C20.5054 35.2047 20.5222 35.2047 20.5389 35.2037C20.7555 35.1779 20.8879 35.0584 20.8845 34.8311C20.8811 34.6039 20.7487 34.4836 20.522 34.4836L17.875 34.4815ZM14.8248 28.5933C14.8248 28.2201 14.8357 27.8462 14.8248 27.4737C14.8133 27.1567 14.5479 26.9809 14.2987 27.1116C14.1365 27.1978 14.0951 27.3527 14.0951 27.5286C14.0951 28.1624 14.0951 28.7963 14.0951 29.4301C14.0951 29.9479 14.0951 29.9396 14.592 29.9299C14.7868 29.9299 14.8384 29.8437 14.8344 29.6609C14.8187 29.3057 14.8248 28.9492 14.8248 28.5933ZM19.7589 28.9228V28.5579C19.7589 28.4363 19.7589 28.3146 19.7589 28.193C19.7508 27.8942 19.6191 27.7197 19.4005 27.7135C19.1676 27.7058 19.0318 27.8761 19.0332 28.2C19.0332 28.617 19.08 29.034 19.0508 29.451C19.0155 29.9646 19.0217 29.9208 19.5308 29.9278C19.7114 29.9278 19.7698 29.8534 19.7637 29.6783C19.7521 29.4267 19.7589 29.1744 19.7589 28.9228Z" fill="#E30613"/>
<path d="M26.3587 11.3364C26.3111 13.0308 25.8427 14.6287 25.0084 16.1146C23.8434 18.1892 22.3818 20.0345 20.7993 21.7887C19.8788 22.8113 18.918 23.7913 17.9168 24.7287C17.7559 24.8788 17.6609 24.8795 17.498 24.7287C15.7057 23.0542 14.0526 21.23 12.5558 19.2749C11.5239 17.9328 10.587 16.5295 9.90814 14.9657C9.37183 13.7272 9.08466 12.4268 9.1254 11.0681C9.24759 6.93829 12.1416 3.50908 16.0031 2.80572C17.8306 2.47281 19.6011 2.59722 21.3051 3.37911C23.0328 4.17074 24.36 5.42802 25.2792 7.12178C25.9921 8.41937 26.3254 9.8247 26.3587 11.3364ZM24.2901 11.3496C24.2996 7.67849 21.3472 4.62597 17.7729 4.61137C14.088 4.59678 11.2177 7.58257 11.1939 11.2008C11.1681 15.1381 14.1518 17.9522 17.7179 17.98C21.3194 18.0085 24.2799 15.0109 24.2888 11.3496H24.2901Z" fill="#E30613"/>
<path d="M17.855 6.72702C18.761 6.72715 19.6467 7.00233 20.3999 7.51776C21.1532 8.03318 21.7403 8.7657 22.0869 9.6227C22.4335 10.4797 22.5241 11.4227 22.3473 12.3324C22.1705 13.2421 21.7341 14.0777 21.0934 14.7336C20.4527 15.3894 19.6364 15.836 18.7478 16.0169C17.8592 16.1978 16.9381 16.1049 16.1011 15.7499C15.2641 15.3949 14.5486 14.7938 14.0453 14.0225C13.5419 13.2513 13.2733 12.3446 13.2733 11.417C13.2745 10.1734 13.7577 8.98114 14.6167 8.10186C15.4757 7.22257 16.6403 6.72812 17.855 6.72702ZM17.855 4.50296C16.5193 4.50296 15.2136 4.90846 14.103 5.66819C12.9924 6.42791 12.1268 7.50773 11.6156 8.77111C11.1045 10.0345 10.9707 11.4247 11.2313 12.7659C11.4919 14.107 12.1351 15.339 13.0796 16.306C14.0241 17.2729 15.2274 17.9314 16.5375 18.1982C17.8475 18.465 19.2054 18.328 20.4395 17.8047C21.6735 17.2814 22.7282 16.3952 23.4703 15.2582C24.2124 14.1212 24.6085 12.7845 24.6085 11.417C24.6085 10.509 24.4338 9.60996 24.0944 8.77111C23.755 7.93226 23.2576 7.17006 22.6304 6.52803C22.0033 5.88601 21.2588 5.37672 20.4395 5.02926C19.6201 4.6818 18.7419 4.50296 17.855 4.50296Z" fill="#E30613"/>
</g>
<defs>
<clipPath id="clip0_4_2489">
<rect width="35.5242" height="37.0687" fill="white"/>
</clipPath>
</defs>
</svg>
